<svg width="24" height="24" viewBox="0 0 24 24" fill="none" xmlns="http://www.w3.org/2000/svg">
<path d="M13.0794 18.845C16.9026 18.845 20.0019 15.7457 20.0019 11.9225C20.0019 8.09931 16.9026 5 13.0794 5C9.8538 5 7.14347 7.20615 6.375 10.1919" stroke="#161A24" stroke-width="1.2"/>
<path d="M12.5 5V7.59594C12.5 8.39244 13.1457 9.03813 13.9422 9.03813V9.03813C14.7387 9.03813 15.3844 9.68382 15.3844 10.4803V10.4803C15.3844 11.2768 16.0301 11.9225 16.8266 11.9225H19.9994" stroke="#161A24" stroke-width="1.2"/>
<path d="M7.3075 14.2294C7.3075 14.8666 6.79095 15.3831 6.15375 15.3831C5.51655 15.3831 5 14.8666 5 14.2294L5.57688 11.9219H9.03813" stroke="#161A24" stroke-width="1.2"/>
<path d="M9.61609 14.2285C9.61609 14.8657 9.09954 15.3823 8.46234 15.3823C7.82515 15.3823 7.30859 14.8657 7.30859 14.2285" stroke="#161A24" stroke-width="1.2"/>
<path d="M9.61672 14.2294C9.61672 14.8666 10.1333 15.3831 10.7705 15.3831C11.4077 15.3831 11.9242 14.8666 11.9242 14.2294L11.3473 11.9219H7.59766" stroke="#161A24" stroke-width="1.2"/>
<path d="M11.9225 18.8457H5" stroke="#161A24" stroke-width="1.2"/>
<path d="M6.15234 18.846V15.3848" stroke="#161A24" stroke-width="1.2"/>
<path d="M10.7695 18.846V15.3848" stroke="#161A24" stroke-width="1.2"/>
</svg>
